<svg width="854" height="725" viewBox="0 0 854 725" fill="none" xmlns="http://www.w3.org/2000/svg">
    <g clip-path="url(#clip0)">
        <path d="M823.647 303.603C780.99 358.189 700.497 370.689 633.897 351.677C612.105 345.304 591.082 336.547 571.208 325.563C559.665 319.29 548.398 312.409 537.36 305.077C534.644 303.281 531.929 301.457 529.241 299.596C527.409 298.343 525.583 297.075 523.764 295.792C500.971 279.746 479.072 262.143 457.54 244.642C403.79 200.953 348.567 155.919 282.528 135.074C268.922 130.781 251.321 128.773 242.908 140.306C235.608 150.318 240.063 164.495 246.24 175.235C269.152 215.018 310.742 240.138 352.369 259.454C393.995 278.77 438.089 294.42 474.275 322.661C510.462 350.903 538.087 395.79 530.686 441.1C524.307 480.146 492.447 511.87 455.404 525.696C418.362 539.513 377.048 537.588 338.542 528.616C300.036 519.635 263.482 503.967 226.319 490.463C203.914 482.311 174.622 476.674 159.755 495.327C147.199 511.087 154.416 535.948 169.706 549.065C184.996 562.182 205.691 566.576 225.436 570.518C286.744 582.769 348.052 595.017 409.359 607.262C428.166 611.011 447.414 614.935 463.8 624.92C480.186 634.896 493.404 652.323 492.935 671.51C492.465 690.421 478.63 707.13 461.673 715.503C444.726 723.867 425.156 725.157 406.276 724.254C335.523 720.864 132.683 608.386 84.0321 594.007C52.7706 584.777 18.5912 571.218 5.40881 541.392C-11.0044 504.261 16.0044 459.338 52.8718 442.38C89.7301 425.413 132.461 429.171 172.634 434.882C212.806 440.593 254.304 447.861 293.409 437.01C332.513 426.159 368.34 390.788 364.483 350.369C361.123 315.2 329.466 288.699 296.151 277.019C270.073 267.873 242.328 265.386 214.933 261.268C207.329 260.135 199.753 258.864 192.251 257.298C173.037 253.27 154.295 247.25 136.328 239.336C117.474 231.049 99.562 220.763 82.8999 208.653C69.6103 199.009 57.1908 188.219 45.784 176.405C44.044 174.599 42.3225 172.754 40.6194 170.869C38.9995 169.063 37.3976 167.221 35.8329 165.342C15.4705 140.997 0.428616 111.014 4.93961 80.1194C9.44072 49.3077 33.4394 23.6543 62.0129 11.3296C78.5273 4.20934 96.3398 1.02224 114.373 0.561673C127.559 0.297975 140.741 1.24766 153.753 3.39875C213.966 13.0337 269.143 42.3072 321.255 74.0031C373.357 105.699 424.134 140.49 480.774 163.085C537.415 185.69 601.89 195.26 659.35 174.82C716.81 154.39 731.172 45.408 761.207 37.6923C791.242 29.9765 831.702 111.806 846.044 160.036C860.386 208.266 854.623 263.958 823.647 303.603Z"
              fill="#F5F4FF"/>
        <path d="M549.058 240.612C552.758 240.612 555.758 237.61 555.758 233.908C555.758 230.205 552.758 227.204 549.058 227.204C545.358 227.204 542.359 230.205 542.359 233.908C542.359 237.61 545.358 240.612 549.058 240.612Z"
              fill="#9AC02C"/>
        <path d="M785.636 155.844C791.357 155.844 795.994 151.204 795.994 145.48C795.994 139.755 791.357 135.115 785.636 135.115C779.916 135.115 775.279 139.755 775.279 145.48C775.279 151.204 779.916 155.844 785.636 155.844Z"
              fill="#BDFF00"/>
        <path d="M106.28 475.388C108.393 475.388 110.107 473.674 110.107 471.559C110.107 469.444 108.393 467.729 106.28 467.729C104.166 467.729 102.453 469.444 102.453 471.559C102.453 473.674 104.166 475.388 106.28 475.388Z"
              fill="#BDFF00"/>
        <path d="M216.129 251.412C216.132 254.733 215.73 258.043 214.933 261.268C207.329 260.135 199.753 258.863 192.251 257.298C173.037 253.269 154.295 247.25 136.328 239.336C139.217 230.001 145.356 222.012 153.629 216.82C161.902 211.628 171.762 209.576 181.418 211.037C191.074 212.498 199.886 217.376 206.255 224.784C212.624 232.192 216.128 241.639 216.129 251.412Z"
              fill="#BDFF00"/>
        <path d="M719.358 216.639C721.519 216.639 723.272 214.885 723.272 212.722C723.272 210.559 721.519 208.805 719.358 208.805C717.196 208.805 715.444 210.559 715.444 212.722C715.444 214.885 717.196 216.639 719.358 216.639Z"
              fill="#686868"/>
        <path d="M361.269 647.726C363.43 647.726 365.183 645.972 365.183 643.809C365.183 641.646 363.43 639.893 361.269 639.893C359.107 639.893 357.354 641.646 357.354 643.809C357.354 645.972 359.107 647.726 361.269 647.726Z"
              fill="#686868"/>
        <path d="M417.421 702.072C419.583 702.072 421.335 700.319 421.335 698.156C421.335 695.993 419.583 694.239 417.421 694.239C415.26 694.239 413.507 695.993 413.507 698.156C413.507 700.319 415.26 702.072 417.421 702.072Z"
              fill="#686868"/>
        <path d="M70.3787 547.323C72.5404 547.323 74.2928 545.57 74.2928 543.406C74.2928 541.243 72.5404 539.49 70.3787 539.49C68.217 539.49 66.4646 541.243 66.4646 543.406C66.4646 545.57 68.217 547.323 70.3787 547.323Z"
              fill="#686868"/>
        <path d="M262.771 474.554C264.933 474.554 266.685 472.801 266.685 470.637C266.685 468.474 264.933 466.721 262.771 466.721C260.609 466.721 258.857 468.474 258.857 470.637C258.857 472.801 260.609 474.554 262.771 474.554Z"
              fill="#686868"/>
        <path d="M243.44 85.8385C245.601 85.8385 247.354 84.0849 247.354 81.9219C247.354 79.7588 245.601 78.0052 243.44 78.0052C241.278 78.0052 239.526 79.7588 239.526 81.9219C239.526 84.0849 241.278 85.8385 243.44 85.8385Z"
              fill="#686868"/>
        <path d="M480.018 392.574C482.18 392.574 483.932 390.82 483.932 388.657C483.932 386.494 482.18 384.741 480.018 384.741C477.856 384.741 476.104 386.494 476.104 388.657C476.104 390.82 477.856 392.574 480.018 392.574Z"
              fill="#686868"/>
        <path d="M509.475 460.737C511.637 460.737 513.389 458.984 513.389 456.821C513.389 454.657 511.637 452.904 509.475 452.904C507.313 452.904 505.561 454.657 505.561 456.821C505.561 458.984 507.313 460.737 509.475 460.737Z"
              fill="#686868"/>
        <path d="M156.662 94.4238C156.691 114.199 152.022 133.698 143.039 151.313C141.851 153.634 140.593 155.915 139.264 158.157C126.11 180.386 106.428 198.018 82.8999 208.653C69.6103 199.009 57.1908 188.218 45.784 176.404C44.044 174.599 42.3225 172.753 40.6194 170.868C38.9995 169.063 37.3976 167.221 35.8329 165.341C15.4705 140.996 0.428638 111.013 4.93963 80.1188C9.44074 49.3071 33.4395 23.6536 62.013 11.329C78.5273 4.20864 96.3398 1.0216 114.373 0.561035C128.473 13.0212 139.589 28.4981 146.896 45.8436C147.816 48.0267 148.663 50.2374 149.464 52.4758C154.241 65.9441 156.676 80.1323 156.662 94.4238Z"
              fill="#9AC02C"/>
        <path d="M213.736 100.872C213.736 120.059 195.012 137.855 161.008 150.999C154.205 153.634 146.923 156.02 139.264 158.157C110.599 166.152 76.4835 170.583 40.6194 170.868C38.9995 169.063 37.3975 167.22 35.8329 165.341C36.2194 165.351 36.606 165.351 36.9925 165.351C75.9405 165.351 112.891 160.413 143.039 151.313C148.608 149.627 153.947 147.803 159.019 145.841C190.281 133.765 208.213 117.369 208.213 100.872C208.213 84.3743 190.28 67.9875 159.019 55.9023C155.926 54.7048 152.741 53.5626 149.464 52.4757C148.663 50.2374 147.816 48.0267 146.896 45.8436C151.793 47.3727 156.497 49.0061 161.008 50.744C195.012 63.8885 213.736 81.6939 213.736 100.872Z"
              fill="#E4E4E4"/>
        <path d="M42.7626 32.4131C44.9242 32.4131 46.6766 30.6596 46.6766 28.4965C46.6766 26.3334 44.9242 24.5799 42.7626 24.5799C40.6009 24.5799 38.8484 26.3334 38.8484 28.4965C38.8484 30.6596 40.6009 32.4131 42.7626 32.4131Z"
              fill="#686868"/>
        <path d="M124.69 57.2835C126.852 57.2835 128.604 55.53 128.604 53.3669C128.604 51.2038 126.852 49.4503 124.69 49.4503C122.529 49.4503 120.776 51.2038 120.776 53.3669C120.776 55.53 122.529 57.2835 124.69 57.2835Z"
              fill="#686868"/>
        <path d="M82.3457 131.063C103.367 131.063 120.408 114.01 120.408 92.9754C120.408 71.9404 103.367 54.8882 82.3457 54.8882C61.3242 54.8882 44.2829 71.9404 44.2829 92.9754C44.2829 114.01 61.3242 131.063 82.3457 131.063Z"
              fill="#686868"/>
        <path opacity="0.3"
              d="M785.27 294.557C776.727 297.081 757.893 298.942 737.181 300.084C716.478 301.217 693.769 301.714 671.344 302.193C632.093 303.041 592.844 303.891 553.599 304.745C548.204 304.865 542.791 304.975 537.36 305.076C534.644 303.28 531.929 301.456 529.241 299.596C534.056 299.623 538.87 299.596 543.648 299.504C564.056 299.098 581.334 297.505 601.015 296.749C631.301 295.58 663.998 296.501 695.564 296.97C727.129 297.449 763.094 297.274 785.27 294.557Z"
              fill="#686868"/>
        <path opacity="0.3"
              d="M182.843 584.925L57.7231 480.625L179.275 589.102C179.511 589.499 179.837 589.834 180.228 590.079C180.618 590.324 181.062 590.473 181.521 590.513C181.981 590.552 182.443 590.481 182.869 590.306C183.296 590.131 183.675 589.857 183.975 589.506C184.274 589.156 184.486 588.738 184.592 588.289C184.698 587.841 184.696 587.373 184.585 586.925C184.475 586.477 184.259 586.062 183.956 585.714C183.653 585.366 183.272 585.095 182.843 584.925H182.843Z"
              fill="#686868"/>
        <path d="M87.8689 189.926C90.0306 189.926 91.783 188.172 91.783 186.009C91.783 183.846 90.0306 182.093 87.8689 182.093C85.7072 182.093 83.9548 183.846 83.9548 186.009C83.9548 188.172 85.7072 189.926 87.8689 189.926Z"
              fill="#686868"/>
        <path d="M416.599 639.83L432.788 639.829L440.49 577.343L416.596 577.344L416.599 639.83Z" fill="#B65151"/>
        <path d="M412.469 634.541L417.026 634.541L434.817 627.301L444.352 634.54H444.354C449.742 634.54 454.91 636.682 458.721 640.495C462.531 644.307 464.672 649.479 464.672 654.871V655.531L412.47 655.533L412.469 634.541Z"
              fill="#2F2E41"/>
        <path d="M295.356 639.83L279.166 639.829L271.464 577.343L295.358 577.344L295.356 639.83Z" fill="#B65151"/>
        <path d="M299.485 655.533L247.282 655.531V654.871C247.283 649.479 249.424 644.307 253.234 640.495C257.044 636.682 262.212 634.54 267.601 634.54H267.602L277.138 627.301L294.929 634.541L299.486 634.541L299.485 655.533Z"
              fill="#2F2E41"/>
        <path d="M353.365 160.949L336.973 173.44L293.426 184.979C293.426 184.979 309.03 294.557 301.666 301.926C294.301 309.295 300.943 309.493 299.463 319.066C297.983 328.639 292.087 353.913 292.087 353.913H422.055C422.055 353.913 423.102 338.205 416.696 334.804C410.289 331.402 422.602 315.525 417.366 312.871C412.13 310.216 419.494 287.188 419.494 287.188L435.454 211.794L393.004 178.56L386.548 162.996L353.365 160.949Z"
              fill="#9AC02C"/>
        <path d="M373.82 258.867C376.952 258.867 379.491 256.326 379.491 253.191C379.491 250.057 376.952 247.516 373.82 247.516C370.687 247.516 368.148 250.057 368.148 253.191C368.148 256.326 370.687 258.867 373.82 258.867Z"
              fill="#F2F2F2"/>
        <path d="M292.087 353.913L286.727 492.009C286.727 492.009 263.586 594.005 267.606 596.687C271.625 599.368 273.328 615.357 273.328 615.357L296.106 618.039C296.106 618.039 296.106 607.313 301.466 603.29C306.825 599.268 356.401 410.224 356.401 410.224L404.766 593.002C404.766 593.002 405.977 603.291 409.996 603.291C414.016 603.291 415.356 618.039 415.356 618.039H438.134V603.291C438.134 603.291 448.369 600.044 444.349 589.318C440.329 578.592 422.055 353.913 422.055 353.913H292.087Z"
              fill="#2F2E41"/>
        <path d="M370.388 152.72C385.558 152.72 397.855 140.414 397.855 125.235C397.855 110.055 385.558 97.7495 370.388 97.7495C355.218 97.7495 342.92 110.055 342.92 125.235C342.92 140.414 355.218 152.72 370.388 152.72Z"
              fill="#B65151"/>
        <path opacity="0.1" d="M417.365 248.664L422.725 252.687L425.405 233.916L417.365 248.664Z" fill="black"/>
        <path d="M295.995 184.873C295.995 184.873 289.296 183.532 285.276 195.599C281.256 207.665 266.518 253.251 266.518 261.295C266.518 269.339 358.305 304.834 358.305 304.834L348.754 271.308L306.714 249.228L295.995 184.873Z"
              fill="#9AC02C"/>
        <path d="M362.562 299.863C371.205 299.863 378.211 292.853 378.211 284.204C378.211 275.556 371.205 268.545 362.562 268.545C353.92 268.545 346.913 275.556 346.913 284.204C346.913 292.853 353.92 299.863 362.562 299.863Z"
              fill="#B65151"/>
        <path opacity="0.1" d="M305.489 232.621L306.714 249.228L345.589 269.646L311.012 246.438L305.489 232.621Z"
              fill="black"/>
        <path d="M398.945 234.989H398.44V221.164C398.44 220.114 398.234 219.073 397.832 218.102C397.43 217.132 396.841 216.249 396.098 215.506C395.356 214.763 394.474 214.174 393.504 213.772C392.534 213.37 391.494 213.163 390.444 213.163H361.174C360.124 213.163 359.084 213.37 358.114 213.772C357.144 214.174 356.262 214.763 355.52 215.506C354.777 216.249 354.188 217.132 353.786 218.102C353.385 219.073 353.178 220.113 353.178 221.164V297.007C353.178 298.057 353.385 299.098 353.786 300.069C354.188 301.039 354.777 301.921 355.52 302.664C356.262 303.407 357.144 303.997 358.114 304.399C359.084 304.801 360.124 305.008 361.174 305.008H390.444C391.494 305.008 392.534 304.801 393.504 304.399C394.474 303.997 395.356 303.407 396.098 302.664C396.841 301.921 397.43 301.039 397.832 300.069C398.234 299.098 398.44 298.057 398.44 297.007V244.829H398.945V234.989Z"
              fill="#686868"/>
        <path d="M435.454 211.794C435.454 211.794 439.474 214.476 442.153 226.542C444.833 238.609 462.252 284.194 455.552 294.92C448.853 305.646 446.875 317.094 424.097 301.005L392.578 272.128L415.356 250.676L424.735 257.379L435.454 211.794Z"
              fill="#9AC02C"/>
        <path d="M376.167 246.966C379.867 246.966 382.866 243.965 382.866 240.262C382.866 236.56 379.867 233.559 376.167 233.559C372.467 233.559 369.467 236.56 369.467 240.262C369.467 243.965 372.467 246.966 376.167 246.966Z"
              fill="#9AC02C"/>
        <path d="M395.56 270.608C404.203 270.608 411.21 263.597 411.21 254.949C411.21 246.3 404.203 239.289 395.56 239.289C386.918 239.289 379.911 246.3 379.911 254.949C379.911 263.597 386.918 270.608 395.56 270.608Z"
              fill="#B65151"/>
        <path opacity="0.1" d="M304.751 282.743L349.675 302.627L303.502 293.597L304.751 282.743Z" fill="black"/>
        <path d="M342.676 130.712L338.905 116.35C337.921 112.603 336.929 108.779 337.15 104.911C337.371 101.043 339.011 97.0511 342.267 94.9555C345.524 92.8599 350.496 93.3549 352.592 96.6129C352.99 91.4107 357.72 87.4091 362.738 85.9915C367.756 84.5739 373.083 85.1345 378.292 85.3737C383.501 85.6129 388.999 85.4459 393.494 82.8026C393.837 83.8311 393.814 84.9464 393.43 85.9602C393.047 86.974 392.325 87.8242 391.387 88.3673C392.505 88.6725 393.696 88.5414 394.721 88.0007C395.745 87.4599 396.527 86.5499 396.906 85.4547C396.94 88.4676 395.827 91.3806 393.793 93.6024C395.733 92.6394 397.962 92.433 400.046 93.0233C402.129 93.6137 403.919 94.9587 405.066 96.7965C407.361 100.776 406.075 105.775 404.733 110.169L397.844 132.72C396.799 129.292 396.602 125.672 396.043 122.132C395.484 118.592 394.49 114.977 392.154 112.26C389.819 109.542 385.852 107.968 382.534 109.318C380.672 110.075 379.252 111.61 377.572 112.713C374.123 114.974 369.736 115.299 365.638 114.838C361.541 114.378 357.548 113.211 353.451 112.744C350.886 112.452 348.023 112.53 346.088 114.239C344.756 115.623 343.877 117.38 343.567 119.275C342.653 123.054 342.294 126.945 342.501 130.827"
              fill="#2F2E41"/>
    </g>
    <defs>
        <clipPath id="clip0">
            <rect width="853" height="724" fill="white" transform="translate(0.5 0.5)"/>
        </clipPath>
    </defs>
</svg>
