<svg width="360" height="360" viewBox="0 0 360 360" fill="none" xmlns="http://www.w3.org/2000/svg">
<path d="M132.737 261.43L146.059 274.752L99.8141 320.997L89.2924 310.475L90.7349 267.455C90.848 263.269 90.5652 260.101 89.8863 257.951C89.1509 255.745 88.0479 253.907 86.5771 252.436C84.6537 250.513 82.5041 249.664 80.1283 249.89C77.7524 250.117 75.3199 251.474 72.8309 253.963C70.6247 256.17 69.0974 258.715 68.2489 261.6C67.4003 264.372 67.3155 267.285 67.9943 270.34L48.563 275.855C47.0357 269.689 47.2619 263.41 49.2418 257.018C51.2217 250.626 55.0684 244.573 60.7818 238.86C65.3073 234.334 70.0308 231.081 74.9522 229.102C79.9303 227.065 84.7669 226.471 89.4621 227.32C94.1573 228.055 98.315 230.233 101.935 233.853C105.16 237.078 107.507 240.839 108.978 245.139C110.449 249.325 111.015 255.208 110.675 262.788L109.827 284.341L132.737 261.43ZM178.274 244.913C173.183 250.004 167.441 253.314 161.049 254.841C154.656 256.368 148.01 255.944 141.108 253.568C134.207 251.079 127.56 246.639 121.168 240.246C114.776 233.854 110.363 227.236 107.931 220.391C105.498 213.433 105.046 206.758 106.573 200.366C108.101 193.973 111.41 188.232 116.501 183.14C121.536 178.106 127.249 174.825 133.641 173.298C140.033 171.77 146.68 172.251 153.582 174.74C160.483 177.116 167.13 181.5 173.522 187.892C179.914 194.284 184.327 200.96 186.759 207.917C189.192 214.762 189.644 221.381 188.117 227.773C186.589 234.165 183.308 239.879 178.274 244.913ZM164.528 231.167C167.356 228.339 168.233 224.747 167.158 220.391C166.083 215.922 162.576 210.718 156.636 204.778C150.697 198.838 145.521 195.359 141.108 194.341C136.696 193.21 133.076 194.058 130.247 196.887C127.362 199.772 126.457 203.449 127.532 207.917C128.607 212.273 132.114 217.421 138.054 223.361C143.993 229.3 149.169 232.836 153.582 233.967C157.994 234.986 161.643 234.052 164.528 231.167ZM253.587 144.484L244.762 153.309L256.132 164.679L239.756 181.056L228.385 169.685L196.99 201.081L186.044 190.135L175.607 126.41L193.002 109.016L203.523 167.903L215.573 155.854L205.475 145.757L221.343 129.889L231.44 139.987L240.265 131.162L253.587 144.484ZM280.651 77.5384C284.951 76.4071 288.995 76.2656 292.785 77.1142C296.575 77.9627 299.97 79.886 302.968 82.8842C306.701 86.6177 308.907 90.9735 309.586 95.9515C310.265 100.93 309.416 106.134 307.041 111.564C304.665 116.995 300.931 122.256 295.84 127.347C290.749 132.438 285.488 136.172 280.057 138.548C274.627 140.923 269.423 141.772 264.444 141.093C259.466 140.414 255.111 138.208 251.377 134.475C248.379 131.477 246.456 128.082 245.607 124.292C244.759 120.502 244.9 116.458 246.031 112.158C242.581 112.781 239.271 112.639 236.104 111.734C232.992 110.772 230.192 109.047 227.703 106.558C224.253 103.107 222.216 99.0911 221.594 94.509C220.915 89.8704 221.65 85.0621 223.8 80.084C226.006 75.0494 229.429 70.2128 234.067 65.5742C238.706 60.9356 243.514 57.5415 248.492 55.3919C253.527 53.1857 258.363 52.422 263.002 53.1008C267.584 53.7231 271.6 55.7595 275.051 59.2102C277.54 61.6992 279.237 64.5277 280.142 67.6955C281.104 70.8068 281.274 74.0878 280.651 77.5384ZM245.862 77.3687C243.769 79.4618 242.637 81.7245 242.468 84.157C242.241 86.5328 243.118 88.7107 245.098 90.6906C247.021 92.614 249.171 93.5191 251.547 93.4059C253.923 93.1796 256.185 91.9917 258.335 89.8421C260.485 87.6925 261.673 85.4298 261.899 83.0539C262.069 80.6214 261.192 78.4435 259.268 76.5202C257.289 74.5403 255.111 73.6635 252.735 73.8898C250.302 74.0595 248.011 75.2191 245.862 77.3687ZM284.045 115.553C286.761 112.837 288.26 110.037 288.543 107.152C288.826 104.154 287.836 101.524 285.573 99.2608C283.31 96.998 280.708 96.0364 277.766 96.3758C274.825 96.602 271.996 98.0728 269.281 100.788C266.566 103.503 265.067 106.36 264.784 109.358C264.501 112.243 265.491 114.817 267.754 117.08C270.016 119.343 272.619 120.361 275.56 120.135C278.502 119.795 281.33 118.268 284.045 115.553Z" fill="#BDFF00"/>
<rect x="2.5" y="2.5" width="355" height="355" rx="17.5" stroke="white" stroke-width="5"/>
</svg>
